<svg width="702" height="487" xmlns="http://www.w3.org/2000/svg" xmlns:xlink="http://www.w3.org/1999/xlink"><defs><linearGradient x1="100.982%" y1="126.941%" x2="69.23%" y2="50%" id="b"><stop stop-color="#FFF" stop-opacity=".422" offset="0%"/><stop stop-color="#D2E5FF" stop-opacity="0" offset="100%"/></linearGradient><path d="M614.17 481.192c85.494-10.27 87.83-30.818 87.83-65.519 0-50.046-120.96-11.502-269.733-11.502-57.358 0-238.745-19.49-282.432-9.21-69.626 16.381 42.182 25.91 42.182 56.661 0 49.353 384.349 34.11 422.153 29.57z" id="a"/><linearGradient x1="102.767%" y1="72.642%" x2="24.138%" y2="79.023%" id="c"><stop stop-color="#313380" stop-opacity="0" offset="0%"/><stop stop-color="#6063C8" stop-opacity=".925" offset="5.458%"/><stop stop-color="#4346C7" stop-opacity=".599" offset="43.408%"/><stop stop-color="#3237E0" stop-opacity="0" offset="100%"/></linearGradient><filter x="-1%" y="-12.8%" width="101.9%" height="125.5%" filterUnits="objectBoundingBox" id="d"><feGaussianBlur stdDeviation="2" in="SourceGraphic"/></filter><radialGradient cx="71.514%" cy="4.845%" fx="71.514%" fy="4.845%" r="154.888%" gradientTransform="matrix(-.64837 .54083 -.41689 -.84113 1.199 -.298)" id="e"><stop stop-color="#191D26" offset="0%"/><stop stop-color="#343A48" stop-opacity="0" offset="100%"/></radialGradient><filter x="0%" y="0%" width="100%" height="100%" filterUnits="objectBoundingBox" id="f"><feGaussianBlur in="SourceGraphic"/></filter><radialGradient cx="71.514%" cy="4.845%" fx="71.514%" fy="4.845%" r="130.775%" id="g"><stop stop-color="#930D36" offset="0%"/><stop stop-color="#B93512" stop-opacity="0" offset="100%"/></radialGradient><filter x="0%" y="0%" width="100%" height="100%" filterUnits="objectBoundingBox" id="h"><feGaussianBlur in="SourceGraphic"/></filter><radialGradient cx="71.514%" cy="4.845%" fx="71.514%" fy="4.845%" r="171.332%" gradientTransform="scale(-1 -.60345) rotate(-54.116 -.126 1.384)" id="i"><stop stop-color="#930D36" offset="0%"/><stop stop-color="#B93512" stop-opacity="0" offset="100%"/></radialGradient><filter x="0%" y="0%" width="100%" height="100%" filterUnits="objectBoundingBox" id="j"><feGaussianBlur in="SourceGraphic"/></filter><linearGradient x1="19.71%" y1="26.895%" x2="45.877%" y2="31.421%" id="k"><stop stop-color="#4C74AD" stop-opacity=".512" offset="0%"/><stop stop-color="#336D98" stop-opacity="0" offset="100%"/></linearGradient><radialGradient cx="65.149%" cy="72.15%" fx="65.149%" fy="72.15%" r="33.045%" gradientTransform="matrix(.64663 -.41831 1.66225 .77274 -.97 .436)" id="m"><stop stop-color="#4C74AD" stop-opacity=".37" offset="0%"/><stop stop-color="#4C74AD" stop-opacity="0" offset="100%"/></radialGradient><path d="M547 318.645c-3.19 3.285-6.314 6.613-9.22 10.16-1.769 2.157-7.518 10.69-10.526 5.6-1.742-2.95-.388-7.914.614-10.97 0 0-2.592-2.414-3.381-5.144-.805-2.785.483-5.357.483-5.357-.086.17-3.874-3.235-4.163-3.514-1.923-1.851-4.625-5.609-5.82-7.995-2.49-4.972-2.299-8.873-5.475-13.524-3.253-4.764-8.674-6.908-9.743-13.18-.654-3.842.657-7.601 1.2-11.383.493-3.44 1.985-6.407.895-9.247-.683-1.778-3.381-4.376-7.246-10.978-1.828-3.125-7.853-12.22-9.821-15.354-3.268-5.204-5.153-8.194-5.797-9.785.407-1.782 1.066-4.103 2.675-5.974.701.99 1.35 1.9 1.934 2.712 7.893 10.973 43.872 41.951 42.1 45.452-1.676 3.312-5.558 3.41-10.124 1.69 5.28 9.776 6.114 16.053 11.928 22.229 10.24 10.875 18.31 20.35 19.487 34.562z" id="l"/><linearGradient x1="15.055%" y1="60.814%" x2="83.169%" y2="60.814%" id="o"><stop stop-color="#CA7540" offset="0%"/><stop stop-color="#CB7741" stop-opacity="0" offset="100%"/></linearGradient><path d="M554.607 436.047c1.729 5.315 2.907 5.154.55 7.248-.945.84-2.905 2.738-1.728 3.705 2.753-1.373 10.214-2.336 12.571-2.9-.55-9.261-.943-11.436-2.671-18.12-.61-2.357-2.122-9.826-4.165-14.98-2.075.756-6.993-1.691-15.164 6.765 6.993 7.329 9.82 15.862 10.607 18.282" id="n"/><filter x="0%" y="0%" width="100%" height="100%" filterUnits="objectBoundingBox" id="p"><feGaussianBlur in="SourceGraphic"/></filter><linearGradient x1="20.902%" y1="76.134%" y2="29.38%" id="r"><stop stop-color="#CA7540" offset="0%"/><stop stop-color="#CB7741" stop-opacity="0" offset="100%"/></linearGradient><path d="M612.775 405.026c1.902 1.149 2.194 6.803 2.224 9.198.04 3.158-1.12 11.228-1.033 13.072.077 1.602-.317 7.1.636 12.587-1.211.948-9.5 2.97-12.127 1.722-1.65-.783.423-1.83.728-4.869.953-.564 1.114-.588 1.231-1.653.16-1.453.556-4.721-.437-9.037-2.241-9.747-5.044-13.758-5.997-15.937 5.64-6.132 12.546-4.983 14.775-5.083" id="q"/><linearGradient x1="28.034%" y1="14.379%" x2="93.132%" y2="103.895%" id="s"><stop stop-color="#C48CE2" offset="0%"/><stop stop-color="#E0B0F9" offset="100%"/></linearGradient><linearGradient x1="50%" y1="100%" x2="50%" y2="0%" id="u"><stop stop-color="#260078" stop-opacity="0" offset="0%"/><stop stop-color="#3F0FBA" stop-opacity=".663" offset="100%"/></linearGradient><path d="M548.485 357.705c1.283.953 6.496-.318 9.303 2.86 5.419 6.137 11.79 14.383 21.974 20.9 3.123 4.499 5.814 8.143 9.463 14.303 2.166 3.655 6.544 11.811 7.458 13.27.377.601 1.9 3.9 2.647 2.702 1.684-2.701 4.851-3.248 6.256-3.735 2.835-.983 6.882-.57 8.18-.238 2.077.533 1.088-.93.24-3.338-.842-2.39-2.962-9.35-4.812-13.667-2.748-6.411-9.463-18.039-13.072-21.852-1.932-2.043-6.657-4.69-7.538-5.881-.882-1.192-6.256-15.02-10.426-27.733-2.236-6.815-4.705-16.529-6.63-21.296-4.776 1.589-30.976 37.81-23.043 43.705" id="t"/><linearGradient x1="11.346%" y1="6.014%" x2="88.806%" y2="61.114%" id="v"><stop stop-color="#382E79" stop-opacity=".255" offset="0%"/><stop stop-color="#66C" stop-opacity=".352" offset="98.87%"/><stop stop-color="#437AB0" stop-opacity="0" offset="100%"/></linearGradient><filter x="-5%" y="-2.9%" width="110%" height="105.9%" filterUnits="objectBoundingBox" id="w"><feGaussianBlur stdDeviation="1" in="SourceGraphic"/></filter><linearGradient x1="-26.682%" y1="67.06%" x2="50%" y2="71.082%" id="y"><stop stop-color="#2F0B6E" offset="0%"/><stop stop-color="#0300D2" stop-opacity="0" offset="100%"/></linearGradient><path d="M530.515 333.46c-.923 2.052-1.37 4.417-.911 7.04-2.224 3.59-4.902 12.657-6.18 17.656-1.443 5.64-3.622 19.888-3.41 24.993.222 5.315.19 10.21 3.836 14.357 4.581 5.211 14.711 14.649 17.046 17.762.694.926 3.196 4.412 5.38 7.071.63.768 1.386.88 2.024.267 2.77-2.66 3.414-3.421 4.528-4.574 2.93-3.031 4.528-3.35 6.339-4.573 1-.675.482-1.143.053-2.712-1.294-4.733-5.773-14.016-9.374-19.197-.86-1.235-5.368-6.932-5.861-8.295-.798-2.203.417-3.846 1.385-5.955 3.068-6.687 7.245-14.784 9.483-19.039 2.148-4.084 5.844-10.408 8.415-15.953 2.664-5.743 10.974-11.06 11.72-21.058.311-4.165-5.403-18.97-6.925-19.675-13.203-5.09-32.068 25.1-37.548 31.884" id="x"/><radialGradient cy="41.556%" fx="50%" fy="41.556%" r="32.553%" gradientTransform="matrix(.96208 .08508 -.41194 .45324 .19 .185)" id="z"><stop stop-color="#5115AA" offset="0%"/><stop stop-color="#7A24A4" stop-opacity=".283" offset="100%"/></radialGradient><radialGradient cx="69.234%" cy="84.317%" fx="69.234%" fy="84.317%" r="43.202%" gradientTransform="matrix(.51054 -.26821 .96891 .17945 -.478 .878)" id="B"><stop stop-color="#4B1C8B" stop-opacity=".5" offset="0%"/><stop stop-color="#330F8C" stop-opacity="0" offset="100%"/></radialGradient><path d="M545.707 314c.638 3.19.91 6.616.75 10.362-.494 11.522-21.788 54.25-14.152 64.795 5.768 7.965 14.97 17.428 21.695 27.748-.367.33-.756.705-1.171 1.135-1.114 1.15-1.758 1.911-4.528 4.566-.639.612-1.394.5-2.025-.266-2.184-2.654-4.686-6.136-5.38-7.06-2.334-3.108-12.465-12.53-17.046-17.734-3.647-4.14-3.614-9.028-3.836-14.335-.212-5.097 1.967-19.322 3.41-24.953 1.278-4.99 3.956-14.045 6.18-17.628-.459-2.619-.011-4.98.911-7.03 2.65-3.276 8.433-12.02 15.192-19.6z" id="A"/><linearGradient x1="100%" y1="35.17%" x2="68.07%" y2="50%" id="D"><stop stop-color="#655694" stop-opacity=".5" offset="0%"/><stop stop-color="#544183" stop-opacity=".369" offset="71.071%"/><stop stop-color="#240752" stop-opacity="0" offset="100%"/></linearGradient><path d="M615.81 440.793c.362 1.493.362 2.554-1.411 3.89-1.062.8-2.054-.158-4.35.117-2.239.268-4.39.668-6.768 1.493-2.51.872-6.646.982-6.928.079-.685-1.61-.371-3.57.926-4.518 1.773-1.297 4.31-4.047 7.01-5.854.023.65-.323 2.239.08 2.789.449-.204 4.637-1.84 5.868-1.965 1.115-.114 4.618.17 4.579.21l.993 3.759z" id="C"/><path d="M555.455 444.362c.74-.14 3.749-1.061 5.034-1.438 1.99-.583 4.263-1.05 5.968-.894.155.385-.062 2.534 0 3.132.124 1.178.42 2.359.527 3.514.043.463.027.704-.446.816-.472.11-6.229.454-8.648 1.088-1.152.303-5.495 1.22-6.333 1.322-1.584.195-1.543.117-2.233-.389-2.302-1.686-1.002-3.53-.528-4.275.42-.66 2.021-1.245 3.33-2.06.768-.478 3.077-1.63 3.897-2.37l-.568 1.554z" id="E"/><path d="M451.333 154c1.92 0 5.036 1.593 5.836 3.189.8 1.595 15.831 24.551 15.831 69.191 0 29.76-8.795 57.82-26.385 84.178 4.477 81.414 6.715 122.972 6.715 124.673 0 1.701-2.238 6.696-6.715 14.985h-12.472l-6.076-11.797-9.914-117.338-11.833 121.484L397.684 455l-27.822-3.189-5.117-16.58 10.873-121.165-6.396 7.015-35.18 122.439-10.873 8.291-12.154-3.507-2.878-9.885 19.83-67.916-32.62 72.062-10.874 4.464-10.234-4.464-2.239-11.48c27.078-67.384 42.962-107.56 47.653-120.527-8.638-10.522-9.117-55.322 3.516-92.15 12.634-36.826 34.22-63.453 49.57-61.22 4.052.957 9.17 2.233 15.353 3.827h14.39c4.37-4.04 7.143-6.06 8.315-6.06 1.76 0 38.616-.955 40.536-.955z" id="F"/><linearGradient x1="30.807%" y1="95.669%" x2="70.44%" y2="13.43%" id="G"><stop stop-color="#FBB417" offset="0%"/><stop stop-color="#FFD76F" offset="100%"/></linearGradient><linearGradient x1="62.5%" y1="100%" x2="62.5%" y2="16.783%" id="H"><stop stop-color="#FBB417" offset="0%"/><stop stop-color="#FFD157" offset="20.231%"/><stop stop-color="#FFD157" offset="100%"/></linearGradient><linearGradient x1="62.5%" y1="100%" x2="62.5%" y2="19.188%" id="I"><stop stop-color="#FBB417" offset="0%"/><stop stop-color="#FFD157" offset="9.244%"/><stop stop-color="#FFD157" offset="92.486%"/><stop stop-color="#FDAA12" stop-opacity=".297" offset="100%"/></linearGradient><linearGradient x1="50%" y1="0%" x2="50%" y2="100%" id="J"><stop stop-color="#FEAE1A" offset="0%"/><stop stop-color="#FCBC14" offset="89.598%"/><stop stop-color="#FFC94A" offset="100%"/></linearGradient><linearGradient x1="30.807%" y1="95.669%" x2="86.307%" y2="-18.645%" id="K"><stop stop-color="#FFD157" offset="0%"/><stop stop-color="#FFD157" offset="19.148%"/><stop stop-color="#FBB417" offset="45.535%"/><stop stop-color="#FBB417" offset="50.593%"/><stop stop-color="#FFD157" offset="57.803%"/><stop stop-color="#FFD157" stop-opacity="0" offset="100%"/></linearGradient><linearGradient x1="69.536%" y1="17.568%" x2="25.094%" y2="71.382%" id="M"><stop stop-color="#FFD056" stop-opacity=".239" offset="0%"/><stop stop-color="#FDAE13" offset="55.7%"/><stop stop-color="#FEAA12" offset="67.937%"/><stop stop-color="#FDB214" stop-opacity="0" offset="100%"/></linearGradient><path d="M370.492 452l-.748-.086-5.111-16.586 10.848-121.073c19.865-16.19 32.326-41.752 37.383-76.685 6.648-45.91-3.515-69.278-11.123-76.55h.584c4.005-3.707 6.665-5.714 7.982-6.02 15.807 4.975 24.541 27.639 22.363 73.002-1.49 31.046-14.161 58.902-38.011 83.569l-10.862 128.54L370.492 452zm4.574-137.408l-.266.292.056-.124.21-.168zM275.2 443.085l-.964-.42L272 431.181c27.045-67.408 42.91-107.597 47.595-120.568-8.627-10.526-9.105-55.341 3.513-92.18 12.618-36.84 34.178-63.475 49.51-61.241.664.156 1.355.322 2.076.496 13.839 11.814 17.938 33.763 12.298 65.848-7.027 39.977-23.424 70.278-49.19 90.904l-51.428 121.206-11.174 7.438z" id="L"/><linearGradient x1="50%" y1="0%" x2="66.292%" y2="61.211%" id="N"><stop stop-color="#FDAB13" offset="0%"/><stop stop-color="#FCBC14" offset="100%"/></linearGradient><linearGradient x1="25.605%" y1="95.249%" x2="198.264%" y2="-67.42%" id="O"><stop stop-color="#FDAB13" offset="0%"/><stop stop-color="#FCBC14" offset="100%"/></linearGradient><linearGradient x1="17.804%" y1="19.038%" x2="88.703%" y2="0%" id="Q"><stop stop-color="#FFF" stop-opacity="0" offset="0%"/><stop stop-color="#FFF" offset="100%"/></linearGradient><linearGradient x1="50%" y1="0%" x2="50%" y2="96.697%" id="R"><stop stop-color="#985ABE" stop-opacity="0" offset="0%"/><stop stop-color="#703EB1" stop-opacity=".5" offset="100%"/></linearGradient><path d="M357.337 216c-27.307-23.225-34.798-75.673-15.747-128.041 22.317-61.345 72.603-99.35 112.318-84.888 39.714 14.462 53.819 75.915 31.502 137.26-5.075 13.952-11.597 26.696-19.113 37.89a92.145 92.145 0 0 0-4.834-12.982c5.321-8.734 9.996-18.404 13.788-28.826 19.718-54.202 8.06-108.208-26.04-120.625-34.098-12.417-77.726 21.456-97.444 75.659-16.351 44.947-11.127 89.76 10.58 110.833-.38 5.276-2.586 10.104-5.01 13.72z" id="P"/><linearGradient x1="93.153%" y1="74.575%" x2="40.558%" y2="14.609%" id="T"><stop stop-color="#FFF" stop-opacity="0" offset="0%"/><stop stop-color="#692CBB" offset="100%"/></linearGradient><path d="M471.702 13.637c26.487 23.786 33.527 75.615 14.65 127.367-5.104 13.99-11.662 26.77-19.219 37.996a92.246 92.246 0 0 0-4.86-13.019c5.35-8.758 10.05-18.455 13.863-28.906 19.827-54.355 8.105-108.512-26.182-120.964-13.204-4.795-27.829-2.706-41.954 4.78 20.067-13.163 42.956-15.045 62.95-7.388.042.016.304.062.752.134z" id="S"/></defs><g fill="none" fill-rule="evenodd"><use fill="#D5CFFA" xlink:href="#a"/><use fill="url(#b)" xlink:href="#a"/><path d="M452.538 456.095c79.417-5.137 274.241-14.79 79.844-14.79 0 0-121.115-5.755-258.785-13.99-41.889-2.505-211.804-19.493-252.385-14.351-64.677 8.194 39.183 12.96 39.183 28.34 0 24.686 357.026 17.062 392.143 14.79z" fill="url(#c)" opacity=".321" filter="url(#d)"/><path d="M531.235 185.554c7.862 5.17 7.654 11.463 8.77 13.214.998 1.566 5.74 3.344 7.653 11.781 1.81 7.985-4.226 12.765-2.87 16.558.797 2.228 6.378 9.711-1.116 17.194-2.392 2.388-9.043 3.035-12.277 2.547-5.322-.803-7.819-5.827-11.923-8.91-9.756-7.329-11.75-6.178-20.604-14.652-6.887-6.592-21.526-8.916-22.801-24.995-.895-11.278 7.372-19.319 14.988-19.742 2.893-.16 8.131 1.433 8.131 1.433s4.55-2.425 7.813-1.91c3.03.477 5.262 2.07 7.016 4.617 0 0 10.683-1.433 17.22 2.865" fill="#343A48"/><path d="M499.84 225.633c5.129-2.861 21.513-2.958 26.959-9.279 6.593-7.653 1.544-12.475-2.16-12.475-1.61-7.412-4.81-14.39-14.171-14.825-5.575-.258-11.348.284-15.781 4.351-3.543-3.421-8.952-3.421-11.112 0-3.865 6.123.252 16.328 3.06 21.593 4.628 8.674 9.03 12.22 13.205 10.635z" fill-opacity=".91" fill="url(#e)" filter="url(#f)"/><path d="M511.232 208.863c.166.681-2.673 2.042-3.772 2.437-1.581.568-3.041.934-3.284 1.584-.469 1.25.648 1.664 1.622 2.599-1.38 3.492-4.542 3.655-1.558 6.55 1.554 1.506 3.668 2.262 5.252 3.773 1.025.978-.18.874 1.334 1.128 2.895.485 6.31-1.82 7.867-3.573 2.445 2.013 7.068 2.002 9.409-.894 3.091-3.825-2.573-4.304-5.27-3.967 3.653-2.967-2.255-3.028-3.409-5.697-1.419-3.283 1.136-8.285 2.92-10.803 0 0-2.44 1.304-5.353 2.843-1.94 1.024-3.568 1.705-4.785 2.315-.943.472-1.204.761-.973 1.705" fill="#DDA04C"/><path d="M524 217.818c-4.326 2.888-11.556 4.05-17.376 5.182-.845-.506-1.678-1.022-2.391-1.694-2.966-2.79.177-2.946 1.547-6.312-.967-.9-2.077-1.3-1.612-2.505.242-.626 1.693-.978 3.264-1.526 1.092-.381 3.913-1.692 3.748-2.348-.23-.91.03-1.189.967-1.644 1.209-.588 2.828-1.244 4.755-2.231 2.895-1.483 5.319-2.74 5.319-2.74-1.773 2.427-4.312 7.248-2.902 10.411 1.147 2.573 7.018 2.631 3.387 5.49.383-.046.825-.076 1.294-.083z" fill-opacity=".55" fill="url(#g)" filter="url(#h)"/><path d="M499 203.028c.832.539 1.732.972 2.678 1.292.939.336 1.914.582 2.903.75 1.978.336 4.007.448 6.003.282.98-.088 1.987-.278 2.975-.464a58.868 58.868 0 0 0 2.955-.646 26.82 26.82 0 0 0 2.882-.862c.935-.34 1.873-.73 2.604-1.38-.628.748-1.571 1.212-2.474 1.643-.93.405-1.893.735-2.867 1.032-1.961.577-3.94 1.021-6.016 1.262-2.07.157-4.16.024-6.169-.426-1.995-.45-3.972-1.205-5.474-2.483M526.47 222.014c.187-.337.337-.707.316-1.067-.025-.36-.235-.645-.506-.841-.559-.39-1.278-.508-1.961-.51-.685.017-1.387.155-1.938.525-.567.348-.87.973-.818 1.675l-.248-.264c.297.04.64-.057 1.02-.128.19-.035.398-.068.623-.034.225.03.452.166.593.346l.082.103-.043.103c-.169.399-.513.655-.848.787-.337.147-.686.18-1.016.291.3-.198.646-.295.93-.484.289-.181.51-.437.604-.737l.038.205c-.225-.22-.518-.186-.864-.087-.34.098-.72.25-1.168.22l-.22-.014-.028-.25c-.048-.43-.006-.904.191-1.317.192-.414.506-.743.851-.974.706-.447 1.5-.592 2.268-.557.763.042 1.554.235 2.179.789.308.27.536.717.486 1.157-.043.434-.268.785-.524 1.063M515 206.816c.19-.288.499-.474.802-.59a3.45 3.45 0 0 1 .946-.212c.641-.063 1.27.1 1.874.282.603.19 1.199.45 1.708.875.246.22.474.488.592.821.124.331.092.706-.037 1.008l-.057-.022c.085-.309.066-.64-.075-.904-.134-.268-.36-.472-.602-.635-.49-.33-1.066-.514-1.642-.629-.581-.115-1.172-.1-1.748-.136-.579-.012-1.156-.043-1.722.193l-.039-.051z" fill="#10110F"/><path d="M513 209.035c.983-.24 4.307.783 5 1.965" stroke="#10110F"/><path d="M512 211.91c.241.605 1.205 1.03 1.638 1.09 1.253-.667 2.073-1.757 2.362-3.09 0-.97-2.313-.91-2.313-.91s-1.253 1.091-1.687 2.91" fill="#000"/><path d="M499 214.543c-9.66-7.07-18.029-14.334-25.468-23.91-3.173-4.084-5.28-8.262-8.13-15.57-2.445-6.27-3.378-6.78-6.756-10.063-2.03 3.921 1.372 14.722 1.372 14.722s1.056 7.097 4.223 12.817c4.687 8.464 11.19 19.383 16.786 28.492 2.174 3.539 5.067 8.58 7.601 11.969C490.51 230.262 499 214.543 499 214.543" fill="#DDA04C"/><path d="M459 175c6.57 12.732 19.118 30.884 25.051 39.12 1.943 2.697 5.586 6.603 9.949 11.012-1.972 3.484-3.867 6.752-4.646 7.868-2.58-3.394-5.527-8.442-7.741-11.986-5.698-9.12-12.32-20.054-17.094-28.53-3.225-5.728-4.3-12.834-4.3-12.834s-.65-2.03-1.219-4.65z" fill-opacity=".34" fill="url(#i)" filter="url(#j)"/><path d="M484.788 227.805c1.966 3.133 7.981 12.224 9.807 15.347 3.858 6.6 6.553 9.196 7.234 10.974 1.089 2.838-.4 5.805-.894 9.243-.542 3.78-1.85 7.537-1.197 11.377 1.066 6.27 6.48 8.413 9.728 13.176 3.171 4.648 2.98 8.548 5.466 13.518 1.194 2.385 3.892 6.14 5.812 7.991.289.279 4.07 3.682 4.156 3.513 0 0-1.286 2.571-.482 5.354.788 2.73 3.376 5.142 3.376 5.143-1 3.054-2.353 8.017-.613 10.965 3.003 5.088 8.743-3.442 10.51-5.598 3.64-4.448 7.623-8.551 11.646-12.657 3.736-3.812 8.682-7.793 13.827-10.815 2.445-1.435 8.31-1.56 7.805-5.37-.373-2.818-2.87-6.007-5.033-7.794-5.423-4.48-12.263-5.567-17.885-9.817-5.534-4.183-9.76-10.697-11.254-17.176-3.751-16.275.965-19.668-9.82-29.842-5.588-5.273-12.714-9.327-18.958-13.735-5.488-3.873-10.35-8.101-15.755-12.087-1.93-1.034-6.535-.35-8.28.636-3.376 1.909-4.421 5.408-4.984 7.873.643 1.59 2.525 4.58 5.788 9.78" fill="#88D576"/><use fill-opacity=".79" fill="url(#k)" xlink:href="#l"/><use fill="url(#m)" xlink:href="#l"/><use fill="#DDA04C" xlink:href="#n"/><use fill-opacity=".85" fill="url(#o)" xlink:href="#n"/><path d="M551.67 413c7.209 9.892 12.794 20.707 10.987 31.82-3.17.544-7.244 1.27-9.131 2.18-1.189-.945.791-2.8 1.746-3.62 2.382-2.047 1.191-1.89-.555-7.084-.796-2.365-3.652-10.704-10.717-17.866 2.978-2.98 5.527-4.575 7.67-5.43z" filter="url(#p)"/><use fill="#DDA04C" xlink:href="#q"/><use fill-opacity=".66" fill="url(#r)" xlink:href="#q"/><use fill="url(#s)" xlink:href="#t"/><use fill="#3D89BF" xlink:href="#t"/><use fill-opacity=".54" fill="url(#u)" xlink:href="#t"/><path d="M609.896 441.42c-2.769.567-5.954.87-7.41.188-1.658-.776.426-1.814.731-4.827.958-.56 1.12-.584 1.238-1.64.16-1.44.559-4.68-.44-8.96-1.838-7.891-4.053-11.99-5.325-14.405-.786.53-2.11-2.358-2.457-2.917-.91-1.47-5.268-9.681-7.423-13.362-3.632-6.202-6.31-9.87-9.419-14.4-10.137-6.561-16.478-14.864-21.872-21.042-2.047-2.346-5.381-2.285-7.519-2.463.689-6.275 3.76-12.8 8.093-17.592l5.972 2.934c15.306 15.137 29.498 34.445 38.457 54.404 4.727 10.532 6.12 27.091 7.295 38.349.217 2.072.238 3.992.08 5.733z" fill-opacity=".58" fill="url(#v)" filter="url(#w)"/><use fill="#5C9CC9" xlink:href="#x"/><use fill-opacity=".38" fill="url(#y)" xlink:href="#x"/><use fill-opacity=".21" fill="url(#z)" xlink:href="#A"/><use fill-opacity=".33" fill="url(#B)" xlink:href="#A"/><use fill="#343A48" xlink:href="#C"/><use fill="url(#D)" xlink:href="#C"/><use fill="#343A48" xlink:href="#E"/><use fill="url(#D)" xlink:href="#E"/><use fill="#FFD056" xlink:href="#F"/><use fill-opacity=".15" fill="#FFF" xlink:href="#F"/><path d="M375.495 313.822l.012-.132-.426.466-.21.167-.055.123-5.08 5.554-16.507-1.435L338 313.964c17.932-14.304 31.305-33.292 40.12-56.964l29.88 3.559c-6.506 23.208-17.34 40.963-32.505 53.263z" fill="url(#G)" opacity=".55"/><path d="M446.773 312H388l22.964-31.855 15.948-71.355-20.814-50.814c2.418-2.014 4.04-3.022 4.866-3.022 1.755 0 38.512-.954 40.427-.954 1.915 0 5.023 1.591 5.821 3.185S473 181.714 473 226.31c0 29.732-8.772 57.764-26.315 84.097l.088 1.593z" fill="url(#H)" opacity=".55"/><path d="M446.416 312c4.39 80.448 6.584 121.518 6.584 123.21 0 1.703-2.224 6.703-6.672 15H433.94l-6.037-11.808-9.848-117.464L406.3 442.55 397.721 455l-27.638-3.192L365 435.21l7.805-87.649L387.874 312h58.542z" fill="url(#I)" opacity=".55"/><path d="M405.84 312.44l1.903-.416c.106-.023.215-.03.324-.02.567.053.982.541.928 1.091l-12.32 125.55a.994.994 0 0 1-.408.706L394 441l11.84-128.56z" fill="url(#J)"/><path d="M370.18 368.832l4.91-55.185-6.357 7.032L340.44 420l-26.295-2.843 13.587-46.936-20.72 46.165L288 414.33l21.68-78.454c4.795-12.339 8.058-20.92 9.788-25.745-.66-.812-1.274-1.828-1.837-3.03L333.134 251 418 261.228l-47.82 107.604z" fill="url(#K)" opacity=".55"/><g opacity=".678"><use fill="#FCBC14" xlink:href="#L"/><use fill="url(#M)" xlink:href="#L"/></g><path fill="url(#N)" d="M311.298 449l-.411-.119-2.887-9.917 18.851-64.59L349.698 319H359l-36.565 122.524zM434.402 450h-.234l-6.15-11.78L418 321.22l1.279-11.01C430.824 305.858 441.397 293.121 451 272c-1.079 10.827-7.283 23.564-18.612 38.211a27275.03 27275.03 0 0 1 9.387 125.302c.15 2.054-2.309 6.883-7.373 14.487z"/><path d="M358.244 190.39c5.051.375 5.43 9.135 2.787 18.134-2.643 9-10.074 16.573-14.173 14.553-4.1-2.02-2.908-12.78-.96-18.31 1.948-5.53 7.294-14.75 12.346-14.376z" fill-opacity=".76" fill="#FD9712"/><path d="M359.375 319.84l-.156.16-9.219-.269.868-.826c15.526-14.776 25.649-25.46 30.357-32.031L384 283l-1.895 4.36c-4.758 10.946-12.335 21.772-22.73 32.48z" fill="url(#O)"/><g><use fill="#99C6DE" xlink:href="#P"/><use fill-opacity=".48" fill="url(#Q)" xlink:href="#P"/><use fill-opacity=".79" fill="url(#R)" xlink:href="#P"/></g><g><use fill="#99C6DE" xlink:href="#S"/><use fill-opacity=".19" fill="url(#T)" xlink:href="#S"/></g></g></svg>